<?xml version="1.0" standalone="no"?>
<!DOCTYPE svg PUBLIC "-//W3C//DTD SVG 20010904//EN"
 "http://www.w3.org/TR/2001/REC-SVG-20010904/DTD/svg10.dtd">
<svg version="1.0" xmlns="http://www.w3.org/2000/svg"
 width="381.000000pt" height="381.000000pt" viewBox="0 0 381.000000 381.000000"
 preserveAspectRatio="xMidYMid meet">
<metadata>
Created by potrace 1.11, written by Peter Selinger 2001-2013
</metadata>
<g transform="translate(0.000000,381.000000) scale(0.100000,-0.100000)"
fill="#000000" stroke="none">
<path d="M2207 2584 c-1 -1 -40 -4 -87 -8 -111 -9 -139 -13 -235 -36 -303 -73
-689 -266 -960 -480 -44 -35 -83 -68 -87 -74 -4 -6 -11 -6 -20 1 -7 5 -134 72
-283 148 -148 76 -326 167 -394 202 -68 35 -125 62 -128 60 -2 -3 46 -138 107
-300 l111 -296 -56 -213 c-31 -117 -58 -220 -60 -229 -2 -9 -8 -34 -14 -55 -6
-21 -9 -40 -6 -42 2 -2 79 45 172 104 92 59 229 146 303 192 74 47 160 102
192 123 l56 38 39 -31 c54 -43 155 -108 244 -156 86 -47 299 -143 299 -135 0
3 6 1 13 -5 22 -18 247 -87 352 -108 11 -2 32 -6 47 -9 31 -7 58 -11 153 -21
39 -3 84 -8 100 -10 44 -4 344 -4 385 1 19 2 57 7 85 10 76 9 256 52 337 81
87 32 226 100 294 145 54 36 266 190 274 199 3 3 25 21 50 40 60 47 106 87
222 199 89 86 96 95 80 107 -19 13 -213 128 -292 172 -134 76 -176 98 -295
157 -314 154 -580 220 -923 228 -41 1 -74 1 -75 1z"/>
</g>
</svg>
